<svg width="1448" height="236" viewBox="0 0 1448 236" fill="none" xmlns="http://www.w3.org/2000/svg">
<g filter="url(#filter0_d_26_95)">
<path fill-rule="evenodd" clip-rule="evenodd" d="M4 84.4629L153 140.693C261 178.624 484 211.018 724 224.647C964 239.249 1204 182.786 1324 154.555L1444 127.297V0.741943H1324C1204 0.741943 964 0.741943 724 0.741943C484 0.741943 244 0.741943 124 0.741943H4V84.4629Z" fill="url(#paint0_linear_26_95)" shape-rendering="crispEdges"/>
<path fill-rule="evenodd" clip-rule="evenodd" d="M4 84.4629L153 140.693C261 178.624 484 211.018 724 224.647C964 239.249 1204 182.786 1324 154.555L1444 127.297V0.741943H1324C1204 0.741943 964 0.741943 724 0.741943C484 0.741943 244 0.741943 124 0.741943H4V84.4629Z" stroke="black" shape-rendering="crispEdges"/>
</g>
<defs>
<filter id="filter0_d_26_95" x="0" y="0.741943" width="1448" height="234.276" filterUnits="userSpaceOnUse" color-interpolation-filters="sRGB">
<feFlood flood-opacity="0" result="BackgroundImageFix"/>
<feColorMatrix in="SourceAlpha" type="matrix" values="0 0 0 0 0 0 0 0 0 0 0 0 0 0 0 0 0 0 127 0" result="hardAlpha"/>
<feOffset dy="4"/>
<feGaussianBlur stdDeviation="2"/>
<feComposite in2="hardAlpha" operator="out"/>
<feColorMatrix type="matrix" values="0 0 0 0 0 0 0 0 0 0 0 0 0 0 0 0 0 0 0.25 0"/>
<feBlend mode="normal" in2="BackgroundImageFix" result="effect1_dropShadow_26_95"/>
<feBlend mode="normal" in="SourceGraphic" in2="effect1_dropShadow_26_95" result="shape"/>
</filter>
<linearGradient id="paint0_linear_26_95" x1="4" y1="56.984" x2="1443.97" y2="66.1584" gradientUnits="userSpaceOnUse">
<stop offset="0.510417" stop-color="#8F00FF"/>
<stop offset="0.9999" stop-color="#0085FF"/>
<stop offset="1" stop-color="#4C31F3" stop-opacity="0.88"/>
</linearGradient>
</defs>
</svg>
