<svg width="35" height="70" viewBox="0 0 35 70" fill="none" xmlns="http://www.w3.org/2000/svg">
<path d="M10.9996 44.5623L10.4996 50.5623L14.9996 45.5623L33.4996 2.56228C32.6996 0.962279 29.833 0.895613 28.4996 1.06228L10.9996 44.5623Z" fill="white"/>
<path d="M19.9996 51.5623C14.3996 53.1623 8.66631 59.8956 6.49965 63.0623L2.49965 57.5623C1.49965 57.3956 -0.200352 57.4623 0.999648 59.0623C2.19965 60.6623 4.16631 65.0623 4.99965 67.0623C5.49965 68.5623 6.69965 70.6623 7.49965 67.0623C8.29965 63.4623 16.4996 55.8956 20.4996 52.5623C20.8996 51.7623 20.333 51.5623 19.9996 51.5623Z" fill="white"/>
<path d="M10.9996 44.5623L10.4996 50.5623L14.9996 45.5623L33.4996 2.56228C32.6996 0.962279 29.833 0.895613 28.4996 1.06228L10.9996 44.5623Z" stroke="white"/>
<path d="M19.9996 51.5623C14.3996 53.1623 8.66631 59.8956 6.49965 63.0623L2.49965 57.5623C1.49965 57.3956 -0.200352 57.4623 0.999648 59.0623C2.19965 60.6623 4.16631 65.0623 4.99965 67.0623C5.49965 68.5623 6.69965 70.6623 7.49965 67.0623C8.29965 63.4623 16.4996 55.8956 20.4996 52.5623C20.8996 51.7623 20.333 51.5623 19.9996 51.5623Z" stroke="white"/>
</svg>
