<svg width="36" height="70" viewBox="0 0 36 70" fill="none" xmlns="http://www.w3.org/2000/svg">
<path d="M11.9996 44.5623L11.4996 50.5623L15.9996 45.5623L34.4996 2.56228C33.6996 0.962279 30.833 0.895613 29.4996 1.06228L11.9996 44.5623Z" fill="white"/>
<path d="M20.9996 51.5623C15.3996 53.1623 9.66631 59.8956 7.49965 63.0623L3.49965 57.5623C2.49965 57.3956 0.799648 57.4623 1.99965 59.0623C3.19965 60.6623 5.16631 65.0623 5.99965 67.0623C6.49965 68.5623 7.69965 70.6623 8.49965 67.0623C9.29965 63.4623 17.4996 55.8956 21.4996 52.5623C21.8996 51.7623 21.333 51.5623 20.9996 51.5623Z" fill="white"/>
<path d="M11.9996 44.5623L11.4996 50.5623L15.9996 45.5623L34.4996 2.56228C33.6996 0.962279 30.833 0.895613 29.4996 1.06228L11.9996 44.5623Z" stroke="white"/>
<path d="M20.9996 51.5623C15.3996 53.1623 9.66631 59.8956 7.49965 63.0623L3.49965 57.5623C2.49965 57.3956 0.799648 57.4623 1.99965 59.0623C3.19965 60.6623 5.16631 65.0623 5.99965 67.0623C6.49965 68.5623 7.69965 70.6623 8.49965 67.0623C9.29965 63.4623 17.4996 55.8956 21.4996 52.5623C21.8996 51.7623 21.333 51.5623 20.9996 51.5623Z" stroke="white"/>
<path d="M15.5 62.0623C15.5 65.8983 12.173 69.0623 8 69.0623C3.82698 69.0623 0.5 65.8983 0.5 62.0623C0.5 58.2262 3.82698 55.0623 8 55.0623C12.173 55.0623 15.5 58.2262 15.5 62.0623Z" stroke="white"/>
</svg>
